<svg viewBox="0 0 2481 2481" xmlns="http://www.w3.org/2000/svg" xml:space="preserve" style="fill-rule:evenodd;clip-rule:evenodd;stroke-linejoin:round;stroke-miterlimit:2"><path d="M1211.39 862.298h68.32v376.182h-68.32v-210.47l-40.05 70.28-38.09-69.5v209.69h-68.33V862.298h68.33l38.87 97.388 39.27-97.388ZM810.079 862.298h161.387l53.404 52.232v279.19l-45.55 44.76H810.079V862.298Zm136.649 71.468h-57.722v233.244h57.722V933.766Z" fill="	#ab5797" style="fill-rule:nonzero" transform="translate(-1745.035 -1746.147) scale(2.84304)"/><path d="M713.875 1050.39c0-209.682 170.026-379.714 379.715-379.714 148.82 0 277.22 85.212 339.66 209.689-64.79-142.929-208.51-242.278-375.79-242.278-227.747 0-412.303 184.554-412.303 412.303 0 227.75 184.556 412.3 412.303 412.3 167.28 0 311-99.74 375.79-242.67-62.44 124.48-190.84 210.08-339.66 210.08-209.689 0-379.715-170.03-379.715-379.71Z" fill="	#ab5797" transform="translate(-1745.035 -1746.147) scale(2.84304)"/><path d="M1394.37 1050.39c0-183.769-148.82-332.989-332.59-332.989-130.365 0-243.455 75.006-298.036 184.169 56.937-125.268 182.984-212.834 329.446-212.834 199.48 0 361.65 161.78 361.65 361.654 0 199.48-162.17 361.26-361.65 361.26-146.462 0-272.509-87.17-329.446-212.44 54.581 109.16 167.671 183.78 298.036 183.78 183.77 0 332.59-148.83 332.59-332.6Z" fill="	#ab5797" transform="translate(-1745.035 -1746.147) scale(2.84304)"/></svg>